<mxfile host="app.diagrams.net" agent="Mozilla/5.0 (Macintosh; Intel Mac OS X 10_15_7) AppleWebKit/537.36 (KHTML, like Gecko) Chrome/139.0.0.0 Safari/537.36" version="28.1.2">
  <diagram name="Page-1" id="K-bWOqGXiK7Wrxyd-z9o">
    <mxGraphModel dx="1267" dy="763" grid="1" gridSize="10" guides="1" tooltips="1" connect="1" arrows="1" fold="1" page="1" pageScale="1" pageWidth="1100" pageHeight="850" math="0" shadow="0">
      <root>
        <mxCell id="0" />
        <mxCell id="1" parent="0" />
        <mxCell id="IIQ7nwHEOzq1zhXMDnsa-14" value="&lt;div&gt;row&lt;/div&gt;image" style="whiteSpace=wrap;html=1;shape=mxgraph.basic.document;fillColor=#F3F4F6;strokeColor=#CFCFD1" parent="1" vertex="1">
          <mxGeometry x="75" y="275" width="60" height="70" as="geometry" />
        </mxCell>
        <mxCell id="IIQ7nwHEOzq1zhXMDnsa-16" value="API Server" style="rounded=1;whiteSpace=wrap;html=1;fontStyle=0;fillColor=#E8F8EC;strokeColor=#C7E9D0" parent="1" vertex="1">
          <mxGeometry x="220" y="270" width="120" height="160" as="geometry" />
        </mxCell>
        <mxCell id="IIQ7nwHEOzq1zhXMDnsa-17" value="OCR&lt;br&gt;（文字起こし）" style="rounded=1;whiteSpace=wrap;html=1;fillColor=#FFF8E1;strokeColor=#F1E2A8" parent="1" vertex="1">
          <mxGeometry x="490" y="200" width="120" height="60" as="geometry" />
        </mxCell>
        <mxCell id="IIQ7nwHEOzq1zhXMDnsa-18" value="Translate&lt;br&gt;（翻訳）" style="rounded=1;whiteSpace=wrap;html=1;fillColor=#FFF8E1;strokeColor=#F1E2A8" parent="1" vertex="1">
          <mxGeometry x="490" y="320" width="120" height="60" as="geometry" />
        </mxCell>
        <mxCell id="IIQ7nwHEOzq1zhXMDnsa-19" value="Render&lt;br&gt;（文字入れ替え）" style="rounded=1;whiteSpace=wrap;html=1;fillColor=#FFF8E1;strokeColor=#F1E2A8" parent="1" vertex="1">
          <mxGeometry x="490" y="440" width="120" height="60" as="geometry" />
        </mxCell>
        <mxCell id="IIQ7nwHEOzq1zhXMDnsa-20" value="" style="endArrow=none;html=1;rounded=1;edgeStyle=orthogonalEdgeStyle;exitX=1;exitY=0.25;exitDx=0;exitDy=0;entryX=0;entryY=0.5;entryDx=0;entryDy=0;" parent="1" source="IIQ7nwHEOzq1zhXMDnsa-16" target="IIQ7nwHEOzq1zhXMDnsa-17" edge="1">
          <mxGeometry width="50" height="50" relative="1" as="geometry">
            <mxPoint x="420" y="450" as="sourcePoint" />
            <mxPoint x="480" y="460" as="targetPoint" />
          </mxGeometry>
        </mxCell>
        <mxCell id="IIQ7nwHEOzq1zhXMDnsa-21" value="" style="endArrow=none;html=1;rounded=1;edgeStyle=orthogonalEdgeStyle;exitX=1;exitY=0.5;exitDx=0;exitDy=0;entryX=0;entryY=0.5;entryDx=0;entryDy=0;" parent="1" source="IIQ7nwHEOzq1zhXMDnsa-16" target="IIQ7nwHEOzq1zhXMDnsa-18" edge="1">
          <mxGeometry width="50" height="50" relative="1" as="geometry">
            <mxPoint x="430" y="580" as="sourcePoint" />
            <mxPoint x="480" y="530" as="targetPoint" />
            <mxPoint as="offset" />
          </mxGeometry>
        </mxCell>
        <mxCell id="IIQ7nwHEOzq1zhXMDnsa-22" value="" style="endArrow=none;html=1;rounded=1;edgeStyle=orthogonalEdgeStyle;exitX=1;exitY=0.75;exitDx=0;exitDy=0;entryX=0;entryY=0.5;entryDx=0;entryDy=0;" parent="1" source="IIQ7nwHEOzq1zhXMDnsa-16" target="IIQ7nwHEOzq1zhXMDnsa-19" edge="1">
          <mxGeometry width="50" height="50" relative="1" as="geometry">
            <mxPoint x="430" y="620" as="sourcePoint" />
            <mxPoint x="480" y="570" as="targetPoint" />
          </mxGeometry>
        </mxCell>
        <mxCell id="IIQ7nwHEOzq1zhXMDnsa-23" value="" style="endArrow=classic;html=1;rounded=1;edgeStyle=orthogonalEdgeStyle;curved=0;exitX=1;exitY=0.5;exitDx=0;exitDy=0;exitPerimeter=0;entryX=0;entryY=0.25;entryDx=0;entryDy=0;" parent="1" source="IIQ7nwHEOzq1zhXMDnsa-14" target="IIQ7nwHEOzq1zhXMDnsa-16" edge="1">
          <mxGeometry x="1" y="240" width="50" height="50" relative="1" as="geometry">
            <mxPoint x="220" y="400" as="sourcePoint" />
            <mxPoint x="270" y="350" as="targetPoint" />
            <mxPoint x="240" y="230" as="offset" />
          </mxGeometry>
        </mxCell>
        <mxCell id="IIQ7nwHEOzq1zhXMDnsa-33" value="&lt;span&gt;Next.js&lt;br&gt;（フロント）&lt;/span&gt;" style="rounded=1;whiteSpace=wrap;html=1;labelBackgroundColor=none;fillColor=#E6F2FF;strokeColor=#BFDFF6" parent="1" vertex="1">
          <mxGeometry x="185" y="80" width="190" height="70" as="geometry" />
        </mxCell>
        <mxCell id="IIQ7nwHEOzq1zhXMDnsa-35" value="" style="endArrow=none;html=1;rounded=1;edgeStyle=orthogonalEdgeStyle;entryX=0.5;entryY=1;entryDx=0;entryDy=0;exitX=0.5;exitY=0;exitDx=0;exitDy=0;" parent="1" source="IIQ7nwHEOzq1zhXMDnsa-16" target="IIQ7nwHEOzq1zhXMDnsa-33" edge="1">
          <mxGeometry width="50" height="50" relative="1" as="geometry">
            <mxPoint x="280" y="270" as="sourcePoint" />
            <mxPoint x="560" y="280" as="targetPoint" />
            <mxPoint as="offset" />
          </mxGeometry>
        </mxCell>
        <mxCell id="7pGkh_BnG6LfnlxkePpN-1" value="&lt;div&gt;translated&lt;/div&gt;image" style="whiteSpace=wrap;html=1;shape=mxgraph.basic.document;fillColor=#F3F4F6;strokeColor=#CFCFD1" parent="1" vertex="1">
          <mxGeometry x="75" y="355" width="60" height="70" as="geometry" />
        </mxCell>
        <mxCell id="7pGkh_BnG6LfnlxkePpN-2" value="" style="endArrow=none;html=1;rounded=1;edgeStyle=orthogonalEdgeStyle;curved=0;exitX=1;exitY=0.5;exitDx=0;exitDy=0;exitPerimeter=0;entryX=0;entryY=0.75;entryDx=0;entryDy=0;startArrow=classic;startFill=1;endFill=0;" parent="1" source="7pGkh_BnG6LfnlxkePpN-1" target="IIQ7nwHEOzq1zhXMDnsa-16" edge="1">
          <mxGeometry x="1" y="240" width="50" height="50" relative="1" as="geometry">
            <mxPoint x="200" y="470" as="sourcePoint" />
            <mxPoint x="200" y="380" as="targetPoint" />
            <mxPoint x="240" y="230" as="offset" />
          </mxGeometry>
        </mxCell>
        <mxCell id="7pGkh_BnG6LfnlxkePpN-4" value="文字起こし" style="html=1;rounded=1;absoluteArcSize=1;arcSize=10;whiteSpace=wrap;fillColor=#FFF8E1;strokeColor=#F1E2A8" parent="1" vertex="1">
          <mxGeometry x="210" y="635" width="100" height="105" as="geometry" />
        </mxCell>
        <mxCell id="7pGkh_BnG6LfnlxkePpN-5" value="翻訳" style="html=1;rounded=1;absoluteArcSize=1;arcSize=10;whiteSpace=wrap;fillColor=#FFF8E1;strokeColor=#F1E2A8" parent="1" vertex="1">
          <mxGeometry x="390" y="637" width="100" height="45" as="geometry" />
        </mxCell>
        <mxCell id="7pGkh_BnG6LfnlxkePpN-7" value="" style="html=1;rounded=0;labelBackgroundColor=none;align=left;spacingLeft=5;endArrow=classic;endFill=1;" parent="1" target="7pGkh_BnG6LfnlxkePpN-5" edge="1">
          <mxGeometry relative="1" as="geometry">
            <mxPoint x="311" y="660" as="sourcePoint" />
          </mxGeometry>
        </mxCell>
        <mxCell id="7pGkh_BnG6LfnlxkePpN-8" value="文字入れ替え" style="html=1;rounded=1;absoluteArcSize=1;arcSize=10;whiteSpace=wrap;fillColor=#FFF8E1;strokeColor=#F1E2A8" parent="1" vertex="1">
          <mxGeometry x="578" y="637.5" width="100" height="105" as="geometry" />
        </mxCell>
        <mxCell id="7pGkh_BnG6LfnlxkePpN-10" value="" style="html=1;rounded=0;labelBackgroundColor=none;align=left;spacingLeft=5;endArrow=classic;endFill=1;exitX=1;exitY=0.5;exitDx=0;exitDy=0;" parent="1" source="7pGkh_BnG6LfnlxkePpN-5" edge="1">
          <mxGeometry relative="1" as="geometry">
            <mxPoint x="560" y="688" as="sourcePoint" />
            <mxPoint x="580" y="660" as="targetPoint" />
          </mxGeometry>
        </mxCell>
        <mxCell id="7pGkh_BnG6LfnlxkePpN-11" value="&lt;div&gt;row&lt;/div&gt;image" style="whiteSpace=wrap;html=1;shape=mxgraph.basic.document;fillColor=#F3F4F6;strokeColor=#CFCFD1" parent="1" vertex="1">
          <mxGeometry x="90" y="652.5" width="60" height="70" as="geometry" />
        </mxCell>
        <mxCell id="7pGkh_BnG6LfnlxkePpN-12" value="" style="endArrow=classic;html=1;rounded=1;edgeStyle=orthogonalEdgeStyle;curved=0;exitX=1;exitY=0.5;exitDx=0;exitDy=0;exitPerimeter=0;entryX=0;entryY=0.5;entryDx=0;entryDy=0;" parent="1" source="7pGkh_BnG6LfnlxkePpN-11" target="7pGkh_BnG6LfnlxkePpN-4" edge="1">
          <mxGeometry x="1" y="240" width="50" height="50" relative="1" as="geometry">
            <mxPoint x="210" y="780" as="sourcePoint" />
            <mxPoint x="200" y="690" as="targetPoint" />
            <mxPoint x="240" y="230" as="offset" />
          </mxGeometry>
        </mxCell>
        <mxCell id="7pGkh_BnG6LfnlxkePpN-18" value="" style="endArrow=classic;html=1;rounded=0;exitX=1;exitY=0.75;exitDx=0;exitDy=0;entryX=0.003;entryY=0.697;entryDx=0;entryDy=0;entryPerimeter=0;" parent="1" source="7pGkh_BnG6LfnlxkePpN-4" target="7pGkh_BnG6LfnlxkePpN-8" edge="1">
          <mxGeometry width="50" height="50" relative="1" as="geometry">
            <mxPoint x="450" y="710" as="sourcePoint" />
            <mxPoint x="500" y="660" as="targetPoint" />
          </mxGeometry>
        </mxCell>
        <mxCell id="7pGkh_BnG6LfnlxkePpN-20" value="文字列（翻訳前）" style="rounded=0;whiteSpace=wrap;html=1;fontSize=10;fillColor=#F3E8FF;strokeColor=#E3CFF6" parent="1" vertex="1">
          <mxGeometry x="310" y="600" width="90" height="20" as="geometry" />
        </mxCell>
        <mxCell id="7pGkh_BnG6LfnlxkePpN-21" value="文字列（翻訳後）" style="rounded=0;whiteSpace=wrap;html=1;fontSize=10;fillColor=#F3E8FF;strokeColor=#E3CFF6" parent="1" vertex="1">
          <mxGeometry x="490" y="600" width="90" height="20" as="geometry" />
        </mxCell>
        <mxCell id="7pGkh_BnG6LfnlxkePpN-22" value="座標" style="rounded=0;whiteSpace=wrap;html=1;fontSize=10;fillColor=#F3E8FF;strokeColor=#E3CFF6" parent="1" vertex="1">
          <mxGeometry x="417.5" y="720" width="45" height="20" as="geometry" />
        </mxCell>
        <mxCell id="7pGkh_BnG6LfnlxkePpN-24" value="" style="endArrow=none;html=1;rounded=1;edgeStyle=orthogonalEdgeStyle;curved=0;entryX=1;entryY=0.5;entryDx=0;entryDy=0;startArrow=classic;startFill=1;endFill=0;exitX=0;exitY=0.5;exitDx=0;exitDy=0;exitPerimeter=0;" parent="1" source="7pGkh_BnG6LfnlxkePpN-25" target="7pGkh_BnG6LfnlxkePpN-8" edge="1">
          <mxGeometry x="1" y="240" width="50" height="50" relative="1" as="geometry">
            <mxPoint x="920" y="700" as="sourcePoint" />
            <mxPoint x="825" y="600" as="targetPoint" />
            <mxPoint x="240" y="230" as="offset" />
          </mxGeometry>
        </mxCell>
        <mxCell id="7pGkh_BnG6LfnlxkePpN-25" value="&lt;div&gt;translated&lt;/div&gt;image" style="whiteSpace=wrap;html=1;shape=mxgraph.basic.document;fillColor=#F3F4F6;strokeColor=#CFCFD1" parent="1" vertex="1">
          <mxGeometry x="750" y="655" width="60" height="70" as="geometry" />
        </mxCell>
        <mxCell id="B4fbzDU94hxuWkfr0TNq-4" value="ゆう" style="shape=folder;align=center;verticalAlign=middle;fontStyle=0;tabWidth=100;tabHeight=30;tabPosition=left;boundedLbl=1;labelInHeader=1;rounded=1;absoluteArcSize=1;arcSize=10;labelBackgroundColor=none;fontColor=default;html=1;whiteSpace=wrap;fillColor=none;dashed=1;dashPattern=12 12;strokeColor=#B9B9B9;shadow=0;" vertex="1" parent="1">
          <mxGeometry x="430" y="280" width="210" height="240" as="geometry" />
        </mxCell>
        <mxCell id="B4fbzDU94hxuWkfr0TNq-5" value="Sean" style="shape=folder;align=center;verticalAlign=middle;fontStyle=0;tabWidth=100;tabHeight=30;tabPosition=left;boundedLbl=1;labelInHeader=1;rounded=1;absoluteArcSize=1;arcSize=10;labelBackgroundColor=none;fontColor=default;html=1;whiteSpace=wrap;fillColor=none;dashed=1;dashPattern=12 12;strokeColor=#B9B9B9;shadow=0;" vertex="1" parent="1">
          <mxGeometry x="30" y="236" width="350" height="220" as="geometry" />
        </mxCell>
        <mxCell id="B4fbzDU94hxuWkfr0TNq-6" value="Hiro" style="shape=folder;align=center;verticalAlign=middle;fontStyle=0;tabWidth=100;tabHeight=30;tabPosition=left;boundedLbl=1;labelInHeader=1;rounded=1;absoluteArcSize=1;arcSize=10;labelBackgroundColor=none;fontColor=default;html=1;whiteSpace=wrap;fillColor=none;dashed=1;dashPattern=12 12;strokeColor=#B9B9B9;shadow=0;" vertex="1" parent="1">
          <mxGeometry x="160" y="30" width="480" height="230" as="geometry" />
        </mxCell>
      </root>
    </mxGraphModel>
  </diagram>
</mxfile>
